# xmcd
#
# Track frame offsets:
#	150
#	11506
#	24056
#	38424
#	47854
#	59289
#	71858
#	85722
#	97750
#	109179
#	122022
#	134342
#	146180
#	156798
#
# Disc length: 2255 seconds
#
# Revision: 0
# Processed by: cddbd v1.5.1PL2 Copyright (c) Steve Scherf et al.
# Submitted via: EasyCDDAExtractor 9.0.0.1
#
DISCID=b008cd0e
DTITLE=Various Artist - Roots of Country
DYEAR=2003
DGENRE=Country
TTITLE0=Frankie Laine - Mule Train
TTITLE1=Gene Autry - Back in the saddle again
TTITLE2=The Carter Family - Wildwood Flower
TTITLE3=Merle Travis - 16 Tons
TTITLE4=Patsy Cline - Walking after midnight
TTITLE5=Johnny Cash - Folsom prison blues
TTITLE6=Bill Monroe - Blue moon of Kentucky
TTITLE7=Lester Flatt and Earl Scruggs - Foggy Mountain breakdown
TTITLE8=Webb Pierce - Slowly
TTITLE9=Hank Snow - I'm moving on
TTITLE10=Hank Williams - Honky tonkin' (1948)
TTITLE11=Bob Wills - New San Antonio rose
TTITLE12=Ferlin Husky - Wings of a dove
TTITLE13=Roy Rogers - Hasta la Vista
EXTD=
EXTT0=
EXTT1=
EXTT2=
EXTT3=
EXTT4=
EXTT5=
EXTT6=
EXTT7=
EXTT8=
EXTT9=
EXTT10=
EXTT11=
EXTT12=
EXTT13=
PLAYORDER=
